<svg xmlns="http://www.w3.org/2000/svg" width="400" height="400" viewBox="0 0 400 400" version="1.1">
	<path d="M 175.776 33.589 C 145.997 38.240, 118.478 49.544, 95.099 66.731 C 54.979 96.224, 28.991 140.736, 22.933 190.335 C 21.215 204.396, 22.216 231.576, 24.960 245.379 C 31.973 280.665, 48.164 310.905, 74 336.973 C 89.848 352.963, 101.024 361.193, 120.018 370.862 C 131.681 376.799, 156.147 386, 160.270 386 C 161.016 386, 162.866 384.706, 164.381 383.124 L 167.136 380.249 159.818 378.485 C 137.229 373.039, 110.680 359.830, 92.500 344.992 C 58.172 316.972, 35.364 275.282, 29.922 230.604 C 28.241 216.804, 29.282 190.446, 32.019 177.527 C 41.128 134.533, 64.923 97.538, 100 71.835 C 129.032 50.561, 164.526 39, 200.807 39 C 216.863 39, 227.310 40.255, 242.500 44.008 C 305.945 59.685, 355.191 110.081, 369.042 173.507 C 372.122 187.610, 371.637 186.824, 375.116 183.346 L 378.149 180.312 376.053 171.406 C 372.580 156.648, 368.068 144.334, 361.045 130.447 C 334.182 77.332, 283.497 41.124, 225.338 33.500 C 211.500 31.686, 187.692 31.729, 175.776 33.589 M 180.500 79.125 C 175.550 79.596, 164.525 81.150, 156 82.579 C 139.069 85.417, 122.051 86.925, 115 86.212 L 110.500 85.757 112.405 87.879 C 113.453 89.045, 114.661 90, 115.090 90 C 115.519 90, 117.078 90.459, 118.555 91.021 C 121.185 92.021, 121.092 92.121, 114.078 95.826 C 110.139 97.907, 104.158 101.610, 100.786 104.055 C 94.699 108.469, 86.459 118.311, 85.445 122.378 C 84.872 124.679, 89.159 144.052, 91.462 149.563 C 92.698 152.522, 92.679 153.943, 91.309 160.657 C 89.416 169.943, 90.512 180.377, 94.381 189.899 C 96.743 195.713, 96.790 196.295, 95.745 206.711 C 94.582 218.293, 94.370 317.703, 95.506 318.840 C 96.590 319.924, 299.305 320.110, 301 319.028 C 302.291 318.205, 302.492 312.935, 302.443 281.286 C 302.412 261.054, 301.793 234.825, 301.068 223 L 299.750 201.500 302.864 196.500 C 304.576 193.750, 306.940 187.687, 308.116 183.027 C 311.166 170.947, 310.271 161.607, 304.379 144 C 303.551 141.525, 302.924 136.740, 302.986 133.367 C 303.124 125.794, 300.832 115.576, 297.535 109.068 C 292.606 99.342, 282.289 91.545, 265.232 84.657 L 258.965 82.126 253.454 84.563 C 250.423 85.903, 247.314 87, 246.544 87 C 245.775 87, 243.838 85.414, 242.240 83.475 C 239.507 80.159, 238.836 79.893, 230.917 78.983 C 220.959 77.838, 193.226 77.916, 180.500 79.125 M 106.575 106.334 C 102.470 110.439, 102.793 115.440, 107.642 122.841 C 110.787 127.641, 111.412 128.114, 113.820 127.513 C 116.747 126.783, 120 124.258, 120 122.718 C 120 122.154, 117.901 121.947, 115 122.226 C 111.227 122.589, 110 122.374, 110 121.353 C 110 120.440, 111.307 120, 114.020 120 L 118.041 120 116.020 116.040 C 113.651 111.396, 113.591 111, 115.256 111 C 115.947 111, 117.081 112.237, 117.776 113.750 C 118.471 115.263, 119.714 117.384, 120.537 118.464 C 121.998 120.381, 122.111 120.351, 125.256 117.205 C 128.952 113.510, 128.678 112.483, 122.709 107.652 C 120.130 105.565, 117.641 104.576, 114.114 104.237 C 109.771 103.820, 108.827 104.082, 106.575 106.334 M 276.492 107.842 C 274.838 108.851, 272.338 111.211, 270.937 113.088 L 268.390 116.500 272.103 119.783 L 275.816 123.066 278.158 118.074 C 280.779 112.488, 283.422 111.042, 282.009 115.967 C 281.541 117.600, 280.871 119.400, 280.520 119.967 C 280.121 120.613, 281.404 121, 283.941 121 C 286.882 121, 288 121.413, 288 122.500 C 288 123.633, 286.778 124, 283 124 C 276.677 124, 276.546 125.517, 282.750 126.887 C 287.245 127.879, 287.614 127.797, 289.627 125.356 C 294.440 119.517, 295.022 112.022, 290.975 107.975 C 288.372 105.372, 280.658 105.301, 276.492 107.842 M 215.798 122.798 C 212.112 125.345, 209.211 127.545, 209.352 127.685 C 209.910 128.243, 227.135 128.198, 227.696 127.637 C 228.327 127.007, 223.871 117.939, 223.002 118.083 C 222.726 118.128, 219.484 120.250, 215.798 122.798 M 157.456 138.046 C 155.852 139.721, 151.106 143.071, 146.912 145.490 C 142.717 147.910, 137.910 151.047, 136.229 152.461 L 133.173 155.033 130.056 151.266 C 128.342 149.195, 126.095 144.800, 125.063 141.500 C 124.016 138.151, 123.146 136.516, 123.094 137.800 C 122.975 140.711, 120.929 144.680, 115 153.500 C 109.022 162.393, 107 166.337, 107 169.105 C 107 171.247, 106.943 171.258, 105 169.500 C 102.396 167.144, 102.400 168.376, 105.025 177.849 C 109.201 192.917, 116.443 203.091, 126.526 208.052 C 134.116 211.787, 144.323 211.530, 153 207.384 C 174.915 196.916, 183.493 173.394, 174.078 149.589 L 172.927 146.678 169.666 149.839 C 167.872 151.578, 166.106 153, 165.741 153 C 164.654 153, 162 142.938, 162 138.818 C 162 136.718, 161.634 135, 161.187 135 C 160.740 135, 159.061 136.371, 157.456 138.046 M 227.500 136.222 C 222.921 137.845, 219.153 140.822, 217.239 144.329 C 215.104 148.238, 215.154 165.441, 217.324 174 L 218.719 179.500 218.236 172 C 217.457 159.907, 221.316 147.664, 228.583 139.174 C 232.359 134.762, 232.274 134.529, 227.500 136.222 M 189.518 136.971 C 189.188 137.504, 189.661 139.377, 190.569 141.133 C 191.476 142.888, 192.449 146.859, 192.730 149.956 L 193.240 155.588 200 155.588 L 206.760 155.588 207.286 149.786 C 207.579 146.553, 208.739 142.413, 209.906 140.435 C 211.058 138.483, 212 136.686, 212 136.443 C 212 135.528, 190.092 136.042, 189.518 136.971 M 232.653 140.854 C 230.702 142.859, 227.925 147.084, 226.483 150.241 C 215.352 174.618, 227.573 202.163, 253.035 210.088 C 258.140 211.677, 259.866 211.795, 264.283 210.859 C 267.152 210.251, 271.263 208.861, 273.418 207.771 C 282.806 203.019, 292.032 189.304, 295.471 174.985 C 297.349 167.169, 298.642 149.511, 297.392 148.751 C 296.901 148.452, 293.661 151.557, 290.191 155.650 L 283.881 163.092 278.371 158.056 C 273.434 153.544, 263.788 147.372, 258.556 145.378 C 256.754 144.691, 256.781 144.910, 258.938 148.399 L 261.263 152.162 254.881 148.960 C 251.372 147.199, 245.733 143.835, 242.351 141.483 L 236.202 137.208 232.653 140.854 M 177.578 143.319 C 175.846 144.586, 175.854 144.794, 177.764 148.569 C 180.274 153.527, 181.971 161.446, 182.100 168.799 L 182.201 174.500 183.187 170.500 C 184.738 164.209, 184.703 148.981, 183.129 145.250 C 181.640 141.722, 180.368 141.279, 177.578 143.319 M 241.094 161.285 C 230.349 165.117, 231.938 179, 243.122 179 C 248.456 179, 250.868 177.559, 252.641 173.316 C 256.161 164.891, 249.740 158.201, 241.094 161.285 M 155.775 164.559 C 146.735 169.465, 151.128 183, 161.760 183 C 165.119 183, 168.444 179.893, 170.067 175.237 C 171.416 171.368, 169.809 165.503, 166.986 163.992 C 164.324 162.568, 158.943 162.839, 155.775 164.559 M 238.380 164.452 C 237.617 166.441, 238.747 168, 240.952 168 C 242.871 168, 244.411 165.473, 243.444 163.910 C 242.555 162.470, 238.994 162.852, 238.380 164.452 M 193.788 165.750 C 192.951 166.713, 191.960 169.525, 191.585 172 C 191.211 174.475, 190.675 177.423, 190.394 178.551 C 189.911 180.491, 190.235 180.580, 196.396 180.188 C 199.978 179.959, 204.353 180.276, 206.117 180.891 C 207.881 181.506, 209.469 181.864, 209.647 181.687 C 209.824 181.509, 209.336 178.039, 208.561 173.975 C 207.674 169.318, 206.500 166.107, 205.386 165.293 C 202.753 163.368, 195.615 163.649, 193.788 165.750 M 156.011 167.487 C 154.543 169.256, 155.355 172, 157.346 172 C 158.121 172, 159.315 171.325, 160 170.500 C 160.993 169.303, 160.993 168.697, 160 167.500 C 158.435 165.614, 157.567 165.611, 156.011 167.487 M 304.639 172.425 C 303.365 180.134, 298.782 191.971, 294.737 198 C 292.708 201.025, 290.311 204.625, 289.410 206 C 288.509 207.375, 290.056 206.124, 292.849 203.220 C 300.787 194.966, 306.912 179.493, 305.814 170.467 C 305.513 167.989, 305.319 168.311, 304.639 172.425 M 94.079 171.583 C 94.127 172.748, 94.364 172.985, 94.683 172.188 C 94.972 171.466, 94.936 170.603, 94.604 170.271 C 94.272 169.939, 94.036 170.529, 94.079 171.583 M 95.478 178.740 C 96.178 184.215, 99.461 192.813, 102.068 196 C 103.958 198.311, 103.943 198.160, 101.867 194 C 100.632 191.525, 98.567 186.125, 97.279 182 C 95.503 176.314, 95.067 175.525, 95.478 178.740 M 181.079 176.583 C 181.127 177.748, 181.364 177.985, 181.683 177.188 C 181.972 176.466, 181.936 175.603, 181.604 175.271 C 181.272 174.939, 181.036 175.529, 181.079 176.583 M 219 181 C 219 181.733, 219.300 182.033, 219.667 181.667 C 220.033 181.300, 220.033 180.700, 219.667 180.333 C 219.300 179.967, 219 180.267, 219 181 M 220 184.500 C 220 184.775, 220.225 185, 220.500 185 C 220.775 185, 221 184.775, 221 184.500 C 221 184.225, 220.775 184, 220.500 184 C 220.225 184, 220 184.225, 220 184.500 M 221 187.500 C 221 187.775, 221.225 188, 221.500 188 C 221.775 188, 222 187.775, 222 187.500 C 222 187.225, 221.775 187, 221.500 187 C 221.225 187, 221 187.225, 221 187.500 M 222 189.500 C 222 189.775, 222.225 190, 222.500 190 C 222.775 190, 223 189.775, 223 189.500 C 223 189.225, 222.775 189, 222.500 189 C 222.225 189, 222 189.225, 222 189.500 M 207.517 194.510 C 203.123 198.100, 197.097 198.709, 191.723 196.108 C 189.328 194.949, 186.872 194, 186.266 194 C 184.257 194, 180.853 200.781, 181.185 204.123 C 181.640 208.704, 183.880 209.737, 189.708 208.053 C 196.884 205.979, 202.787 205.634, 208.645 206.945 C 215.516 208.483, 218 207.303, 218 202.500 C 218 200.089, 217.078 198.019, 214.896 195.535 C 213.189 193.591, 211.502 192.016, 211.146 192.036 C 210.791 192.056, 209.157 193.169, 207.517 194.510 M 226.500 197 C 226.840 197.550, 227.343 198, 227.618 198 C 227.893 198, 227.840 197.550, 227.500 197 C 227.160 196.450, 226.657 196, 226.382 196 C 226.107 196, 226.160 196.450, 226.500 197 M 104 199.500 C 104 199.775, 104.225 200, 104.500 200 C 104.775 200, 105 199.775, 105 199.500 C 105 199.225, 104.775 199, 104.500 199 C 104.225 199, 104 199.225, 104 199.500 M 99.657 209.723 C 99.324 214.550, 98.754 225.431, 98.391 233.902 L 97.729 249.304 100.115 248.643 C 111.571 245.470, 153.386 239.053, 154.614 240.280 C 154.810 240.477, 155.271 245.894, 155.638 252.319 L 156.305 264 162.902 264.004 C 173.380 264.010, 178.376 268.105, 178.247 276.582 C 178.124 284.772, 172.551 291.657, 162.418 296.139 C 157.930 298.125, 157.890 298.184, 159.458 300.576 C 160.331 301.909, 160.586 303, 160.023 303 C 159.460 303, 159 303.675, 159 304.500 C 159 305.808, 164.049 306, 198.441 306 C 223.841 306, 238.104 305.641, 238.504 304.993 C 238.847 304.439, 238.435 303.720, 237.589 303.396 C 236.234 302.876, 236.227 302.631, 237.526 301.331 C 238.337 300.521, 239 298.314, 239 296.429 L 239 293 233.316 293 C 222.639 293, 214.727 286.635, 214.727 278.046 C 214.727 270.241, 221.467 263.897, 234.073 259.837 C 241.633 257.403, 242 256.779, 242 246.375 C 242 239.993, 241.102 240.192, 257.075 243.030 C 270.182 245.358, 283.891 249.087, 292.199 252.584 C 295.356 253.913, 298.066 255, 298.220 255.001 C 298.630 255.002, 297.258 222.728, 296.486 214.235 L 295.826 206.969 292.163 209.817 C 286.943 213.874, 287.335 213.716, 274.338 217.002 C 261.127 220.342, 253.262 220.740, 244.680 218.505 C 237.039 216.515, 231.710 213.695, 226.484 208.878 C 222.451 205.161, 222.124 205.035, 221.513 206.960 C 220.795 209.220, 216.204 212, 213.189 212 C 211.628 212, 211.167 212.961, 210.670 217.250 C 209.836 224.433, 206.896 227, 199.500 227 C 192.518 227, 189.124 224.347, 188.306 218.248 C 187.930 215.440, 187.239 214, 186.269 214 C 183.160 214, 177.963 210.702, 177.374 208.355 L 176.770 205.948 172.426 209.507 C 170.037 211.465, 165.026 214.514, 161.291 216.283 C 154.978 219.274, 153.761 219.499, 144 219.490 C 134.927 219.480, 132.168 219.046, 123.698 216.289 C 112.238 212.559, 108.277 210.310, 103.648 204.902 L 100.262 200.946 99.657 209.723 M 194.750 211.241 C 192.517 211.993, 192 212.767, 192 215.361 C 192 219.292, 194.454 223, 197.057 223 C 199.181 223, 199.481 220.595, 198.192 213.908 C 197.537 210.509, 197.352 210.366, 194.750 211.241 M 201 216.500 C 201 221.042, 201.377 222.995, 202.250 222.985 C 205.123 222.949, 206.338 220.968, 206.784 215.592 L 207.248 210 204.124 210 L 201 210 201 216.500 M 357 224.412 C 357 224.639, 356.325 228.351, 355.500 232.662 C 354.675 236.973, 354 240.613, 354 240.750 C 354 240.887, 354.900 241, 356 241 C 357.454 241, 358 240.333, 358 238.559 C 358 237.216, 358.405 235.868, 358.899 235.562 C 359.394 235.256, 363.107 235.634, 367.149 236.401 C 374.901 237.872, 376 237.755, 376 235.460 C 376 234.003, 375.624 233.875, 365.750 231.968 C 360.084 230.874, 360 230.808, 360 227.429 C 360 225.048, 359.542 224, 358.500 224 C 357.675 224, 357 224.185, 357 224.412 M 352.161 251.329 C 350.989 252.576, 349.749 255.007, 349.404 256.732 C 348.898 259.258, 349.275 260.366, 351.343 262.434 C 352.754 263.845, 354.449 265, 355.108 265 C 355.768 265, 358.020 263.145, 360.113 260.877 C 362.543 258.246, 364.470 256.966, 365.443 257.340 C 367.164 258, 366.686 260.039, 363.849 264.138 C 362.344 266.312, 362.259 266.970, 363.360 267.884 C 364.367 268.720, 365.071 268.563, 366.220 267.246 C 370.423 262.428, 371.221 256.415, 368.040 253.536 C 365.335 251.088, 361.872 252.168, 358.578 256.487 C 357.104 258.419, 355.246 260, 354.449 260 C 352.524 260, 352.561 255.609, 354.500 254 C 355.325 253.315, 356 252.162, 356 251.437 C 356 249.065, 354.332 249.018, 352.161 251.329 M 254.839 260.494 C 254.567 260.766, 249.713 262.134, 244.053 263.535 C 232.772 266.326, 226.958 268.854, 222.750 272.797 C 219.242 276.085, 219.258 279.412, 222.802 282.956 C 227.035 287.189, 231.393 287.461, 248.322 284.547 C 256.462 283.146, 263.545 282, 264.061 282 C 265.535 282, 265.161 275.546, 263.382 270.285 C 260.820 262.711, 257 258.333, 254.839 260.494 M 253.540 268.347 C 252.208 269.321, 252.030 269.900, 252.896 270.436 C 254.583 271.478, 257 270.357, 257 268.531 C 257 266.644, 255.946 266.588, 253.540 268.347 M 247 268.658 C 246.175 268.933, 244.862 269.363, 244.083 269.612 C 243.057 269.940, 242.968 270.368, 243.760 271.160 C 245.229 272.629, 250 271.345, 250 269.481 C 250 267.944, 249.529 267.815, 247 268.658 M 150.500 271.079 C 140.648 273.242, 133.995 275.302, 133.004 276.495 C 131.785 277.964, 131.495 290.792, 132.553 296.430 C 133.085 299.268, 133.645 300.041, 134.877 299.644 C 135.770 299.356, 140.775 297.502, 146 295.524 C 151.225 293.545, 157.525 291.198, 160 290.307 C 162.475 289.416, 166.441 286.763, 168.814 284.411 C 172.607 280.652, 173.091 279.676, 172.814 276.340 C 172.577 273.470, 171.891 272.239, 170 271.288 C 167.180 269.868, 156.534 269.754, 150.500 271.079 M 340.688 276.563 C 339.188 279.623, 338.228 282.560, 338.556 283.090 C 339.107 283.982, 354.323 292, 355.463 292 C 355.743 292, 357.366 289.238, 359.070 285.861 C 361.524 280.999, 361.891 279.551, 360.834 278.897 C 359.878 278.306, 358.857 279.337, 357.231 282.536 C 354.739 287.438, 354.715 287.453, 351.932 285.964 C 350.019 284.940, 350.019 284.883, 351.955 281.088 C 353.033 278.976, 353.634 276.967, 353.290 276.624 C 351.869 275.203, 350.274 276.203, 348.701 279.500 C 346.930 283.215, 346.369 283.519, 344.025 282.037 C 342.755 281.233, 342.850 280.489, 344.712 276.656 C 345.901 274.209, 346.602 271.935, 346.270 271.603 C 344.735 270.069, 343.208 271.426, 340.688 276.563 M 249.245 275.250 C 249.878 277.173, 254 277.450, 254 275.570 C 254 274.549, 253.097 274, 251.417 274 C 249.797 274, 248.987 274.466, 249.245 275.250 M 138.750 280.722 C 132.710 282.495, 132.357 284.516, 138.250 283.581 C 142.419 282.920, 146.015 280.679, 144.346 279.782 C 143.881 279.532, 141.363 279.954, 138.750 280.722 M 136.459 287.067 C 136.096 287.653, 136.050 288.384, 136.357 288.690 C 137.179 289.513, 140 288.229, 140 287.031 C 140 285.674, 137.303 285.701, 136.459 287.067 M 331.850 292.943 C 331.767 293.525, 331.655 294.393, 331.600 294.873 C 331.545 295.354, 333.863 297.614, 336.750 299.897 C 342.099 304.124, 343.369 307.231, 340.800 309.800 C 338.758 311.842, 335.729 311.146, 330.258 307.378 C 325.934 304.400, 324.734 303.976, 323.507 304.994 C 322.232 306.053, 322.629 306.698, 326.258 309.458 C 334.942 316.061, 338.533 316.621, 343.077 312.077 C 347.391 307.763, 347.080 303.686, 342.088 299.096 C 337.230 294.631, 332.052 291.519, 331.850 292.943 M 312.256 318.029 C 309.928 318.965, 306.010 324.492, 306.004 326.849 C 305.988 332.618, 313.354 338.740, 318.857 337.531 C 322.385 336.757, 330.488 328.401, 328.465 327.625 C 327.694 327.329, 326.390 325.476, 325.568 323.508 C 324.541 321.050, 322.974 319.469, 320.568 318.464 C 316.609 316.810, 315.441 316.749, 312.256 318.029 M 311.655 322.829 C 309.305 325.426, 309.605 328.695, 312.455 331.545 C 315.428 334.519, 319.056 334.701, 321.500 332 C 323.257 330.059, 323.247 330, 321.155 330 C 318.351 330, 318.379 328.165, 321.200 327.122 L 323.399 326.308 320.745 323.654 C 317.655 320.564, 314.005 320.232, 311.655 322.829 M 284.061 340.963 C 282.865 341.702, 282.844 342.922, 283.927 348.981 C 284.630 352.912, 285.024 356.309, 284.803 356.530 C 284.583 356.751, 281.952 354.922, 278.958 352.466 C 273.492 347.982, 271.615 347.196, 270.537 348.940 C 270.062 349.709, 274.907 353.960, 285.792 362.322 C 286.659 362.988, 287.449 362.951, 288.191 362.209 C 289 361.400, 288.960 358.599, 288.041 351.801 C 286.604 341.173, 286.071 339.720, 284.061 340.963 M 303.473 347.044 C 302.603 348.451, 305.072 351.328, 306.190 350.210 C 307.178 349.222, 306.231 346, 304.952 346 C 304.493 346, 303.828 346.470, 303.473 347.044 M 253.831 356.530 C 250.772 358.191, 248.612 363.604, 249.537 367.290 C 251.389 374.670, 261.345 377.746, 266.545 372.545 C 269.526 369.565, 269.736 367, 267 367 C 265.876 367, 265 367.667, 265 368.521 C 265 370.952, 260.487 372.543, 257.480 371.173 C 254.618 369.869, 252.631 365.605, 253.421 362.460 C 254.120 359.675, 258.488 357.656, 260.957 358.977 C 262.348 359.721, 262.948 359.577, 263.403 358.391 C 263.735 357.527, 263.753 356.410, 263.444 355.910 C 262.590 354.527, 256.836 354.898, 253.831 356.530 M 233.877 367.660 L 232.610 373.319 229.028 369.160 C 225.813 365.427, 222 363.628, 222 365.844 C 222 366.309, 224.250 369.260, 227 372.403 C 230.002 375.834, 232 379.068, 232 380.499 C 232 383.230, 233.161 384.259, 235.310 383.434 C 236.485 382.984, 236.608 382.162, 235.889 379.558 C 235.199 377.062, 235.465 374.695, 236.975 369.877 C 239.438 362.022, 239.438 362, 237.072 362 C 235.544 362, 234.881 363.175, 233.877 367.660 M 206.049 373.060 L 203.184 379.119 199.858 373.560 C 197.444 369.523, 195.934 368, 194.347 368 C 192.210 368, 192.173 368.224, 192.705 377.750 C 193.004 383.113, 193.604 387.888, 194.037 388.363 C 195.783 390.273, 197 387.554, 197 381.745 L 197 375.608 200.011 380.356 C 201.667 382.968, 203.486 384.818, 204.053 384.467 C 204.620 384.117, 205.788 382.071, 206.648 379.921 C 208.701 374.790, 210 375.812, 210 382.559 C 210 387.333, 210.245 388, 212 388 C 214.279 388, 214.390 386.910, 213.353 374.651 C 212.794 368.034, 212.450 367, 210.811 367 C 209.474 367, 208.071 368.786, 206.049 373.060" stroke="none" fill="#000000" fill-rule="evenodd"/>
</svg>